<svg height="1440" style="background-color: #000000;" viewBox="0 0 920 1440" width="920" xmlns="http://www.w3.org/2000/svg">
<text fill="white" font-family="Arial" font-size="15" font-weight="bold" x="20" y="30">
TAUTOLOGY
</text>
<line stroke="#dddddd" stroke-width="2" x1="460" x2="460" y1="310" y2="390"/>
<line stroke="#dddddd" stroke-width="2" x1="460" x2="460" y1="490" y2="570"/>
<line stroke="#dddddd" stroke-width="2" x1="460" x2="460" y1="670" y2="750"/>
<line stroke="#dddddd" stroke-width="2" x1="460" x2="460" y1="850" y2="930"/>
<line stroke="#dddddd" stroke-width="2" x1="460" x2="460" y1="1030" y2="1110"/>
<line stroke="#dddddd" stroke-width="2" x1="460" x2="460" y1="130" y2="210"/>
<line stroke="#dddddd" stroke-width="2" x1="460" x2="200" y1="1210" y2="1290"/>
<line stroke="#dddddd" stroke-width="2" x1="460" x2="720" y1="1210" y2="1290"/>
<path d="M 300 1340 C 391 1340, 269 980, 360 980" fill="none" stroke="#e57373" stroke-dasharray="5,5" stroke-width="2"/>
<circle cx="300" cy="1340" fill="#e57373" r="12"/>
<text fill="white" font-family="Arial" font-size="10" text-anchor="middle" x="300" y="1344">
7
</text>
<circle cx="360" cy="980" fill="#e57373" r="12"/>
<text fill="white" font-family="Arial" font-size="10" text-anchor="middle" x="360" y="984">
5
</text>
<path d="M 620 1340 C 395 1340, 785 440, 560 440" fill="none" stroke="#aed581" stroke-dasharray="5,5" stroke-width="2"/>
<circle cx="620" cy="1340" fill="#aed581" r="12"/>
<text fill="white" font-family="Arial" font-size="10" text-anchor="middle" x="620" y="1344">
8
</text>
<circle cx="560" cy="440" fill="#aed581" r="12"/>
<text fill="white" font-family="Arial" font-size="10" text-anchor="middle" x="560" y="444">
2
</text>
<g>
<rect fill="#ffcccc" height="100" rx="10" ry="10" stroke="black" stroke-width="2" width="200" x="620" y="1290"/>
<text fill="#666666" font-family="monospace" font-size="12" x="630" y="1310">
[8]
</text>
<text dominant-baseline="middle" font-family="Arial" font-size="18" font-weight="bold" x="645" y="1340">
T
</text>
<text font-family="monospace" font-size="13" text-anchor="start" x="670" y="1346">
Q
</text>
<circle cx="800" cy="1310" fill="#aed581" r="15"/>
<text fill="white" font-family="Arial" font-size="14" text-anchor="middle" x="800" y="1315">
×
</text>
<text dominant-baseline="middle" fill="#aed581" font-family="Arial" font-size="12" font-weight="bold" text-anchor="end" x="780" y="1310">
[2]
</text>
</g>
<g>
<rect fill="#ffffff" height="100" rx="10" ry="10" stroke="black" stroke-width="2" width="232" x="344" y="210"/>
<text fill="#666666" font-family="monospace" font-size="12" x="354" y="230">
[1]
</text>
<text dominant-baseline="middle" font-family="Arial" font-size="18" font-weight="bold" x="369" y="260">
T
</text>
<text font-family="monospace" font-size="13" text-anchor="start" x="394" y="266">
( ( P ⇒ Q ) ∧ P )
</text>
</g>
<g>
<rect fill="#ffffff" height="100" rx="10" ry="10" stroke="black" stroke-width="2" width="232" x="344" y="30"/>
<text fill="#666666" font-family="monospace" font-size="12" x="354" y="50">
[0]
</text>
<text dominant-baseline="middle" font-family="Arial" font-size="18" font-weight="bold" x="369" y="80">
F
</text>
<text font-family="monospace" font-size="13" text-anchor="start" x="394" y="76">
( ( ( P ⇒ Q ) ∧ P )
</text>
<text font-family="monospace" font-size="13" text-anchor="start" x="394" y="95">
⇒ Q )
</text>
</g>
<g>
<rect fill="#ffffff" height="100" rx="10" ry="10" stroke="black" stroke-width="2" width="200" x="360" y="750"/>
<text fill="#666666" font-family="monospace" font-size="12" x="370" y="770">
[4]
</text>
<text dominant-baseline="middle" font-family="Arial" font-size="18" font-weight="bold" x="385" y="800">
T
</text>
<text font-family="monospace" font-size="13" text-anchor="start" x="410" y="806">
( P ⇒ Q )
</text>
</g>
<g>
<rect fill="#ffffff" height="100" rx="10" ry="10" stroke="black" stroke-width="2" width="200" x="360" y="1110"/>
<text fill="#666666" font-family="monospace" font-size="12" x="370" y="1130">
[6]
</text>
<text dominant-baseline="middle" font-family="Arial" font-size="18" font-weight="bold" x="385" y="1160">
T
</text>
<text font-family="monospace" font-size="13" text-anchor="start" x="410" y="1166">
( P ⇒ Q )
</text>
</g>
<g>
<rect fill="#ffcccc" height="100" rx="10" ry="10" stroke="black" stroke-width="2" width="200" x="100" y="1290"/>
<text fill="#666666" font-family="monospace" font-size="12" x="110" y="1310">
[7]
</text>
<text dominant-baseline="middle" font-family="Arial" font-size="18" font-weight="bold" x="125" y="1340">
F
</text>
<text font-family="monospace" font-size="13" text-anchor="start" x="150" y="1346">
P
</text>
<circle cx="280" cy="1310" fill="#e57373" r="15"/>
<text fill="white" font-family="Arial" font-size="14" text-anchor="middle" x="280" y="1315">
×
</text>
<text dominant-baseline="middle" fill="#e57373" font-family="Arial" font-size="12" font-weight="bold" text-anchor="end" x="260" y="1310">
[5]
</text>
</g>
<g>
<rect fill="#ffffff" height="100" rx="10" ry="10" stroke="black" stroke-width="2" width="232" x="344" y="570"/>
<text fill="#666666" font-family="monospace" font-size="12" x="354" y="590">
[3]
</text>
<text dominant-baseline="middle" font-family="Arial" font-size="18" font-weight="bold" x="369" y="620">
T
</text>
<text font-family="monospace" font-size="13" text-anchor="start" x="394" y="626">
( ( P ⇒ Q ) ∧ P )
</text>
</g>
<g>
<rect fill="#ffffff" height="100" rx="10" ry="10" stroke="black" stroke-width="2" width="200" x="360" y="390"/>
<text fill="#666666" font-family="monospace" font-size="12" x="370" y="410">
[2]
</text>
<text dominant-baseline="middle" font-family="Arial" font-size="18" font-weight="bold" x="385" y="440">
F
</text>
<text font-family="monospace" font-size="13" text-anchor="start" x="410" y="446">
Q
</text>
</g>
<g>
<rect fill="#ffffff" height="100" rx="10" ry="10" stroke="black" stroke-width="2" width="200" x="360" y="930"/>
<text fill="#666666" font-family="monospace" font-size="12" x="370" y="950">
[5]
</text>
<text dominant-baseline="middle" font-family="Arial" font-size="18" font-weight="bold" x="385" y="980">
T
</text>
<text font-family="monospace" font-size="13" text-anchor="start" x="410" y="986">
P
</text>
</g>
</svg>